<svg xmlns="http://www.w3.org/2000/svg" version="1.1" xmlns:xlink="http://www.w3.org/1999/xlink" width="200" height="200"><svg xmlns="http://www.w3.org/2000/svg" version="1.1" xmlns:xlink="http://www.w3.org/1999/xlink" viewBox="0 0 200 200"><rect width="200" height="200" fill="url('#gradient')"></rect><defs><linearGradient id="SvgjsLinearGradient1001" gradientTransform="rotate(45 0.5 0.5)"><stop offset="0%" stop-color="#0c85e8"></stop><stop offset="100%" stop-color="#ffffff"></stop></linearGradient></defs><g><g fill="#ffffff" transform="matrix(6.478734622144112,0,0,6.478734622144112,1.5230368634309457,145.41764709274884)" stroke="#ffffff" stroke-width="0.2"><path d="M4.73-14.22L4.73 0L1.31 0L1.31-14.22L4.73-14.22ZM12.88 0L7.11 0L7.11-14.22L12.22-14.22Q14.96-14.22 16.39-13.21Q17.82-12.21 17.82-10.29L17.82-10.29Q17.82-9.19 17.31-8.41Q16.81-7.63 15.82-7.26L15.82-7.26Q16.93-6.96 17.53-6.16Q18.13-5.36 18.13-4.21L18.13-4.21Q18.13-2.12 16.80-1.07Q15.48-0.02 12.88 0L12.88 0ZM12.94-6.04L10.54-6.04L10.54-2.64L12.78-2.64Q13.71-2.64 14.21-3.06Q14.71-3.49 14.71-4.26L14.71-4.26Q14.71-6.04 12.94-6.04L12.94-6.04ZM10.54-11.57L10.54-8.29L12.32-8.29Q13.45-8.30 13.93-8.70Q14.40-9.10 14.40-9.88L14.40-9.88Q14.40-10.78 13.89-11.18Q13.37-11.57 12.22-11.57L12.22-11.57L10.54-11.57ZM25.67-4.46L25.67-14.22L29.09-14.22L29.09-4.46Q29.09-3.11 28.46-2.04Q27.83-0.98 26.70-0.39Q25.58 0.20 24.19 0.20L24.19 0.20Q21.87 0.20 20.58-0.98Q19.29-2.15 19.29-4.30L19.29-4.30L22.72-4.30Q22.72-3.32 23.06-2.88Q23.40-2.44 24.19-2.44L24.19-2.44Q24.90-2.44 25.29-2.97Q25.67-3.51 25.67-4.46L25.67-4.46Z"></path></g></g></svg><style>@media (prefers-color-scheme: light) { :root { filter: none; } }
@media (prefers-color-scheme: dark) { :root { filter: none; } }
</style></svg>